<?xml version="1.0" encoding="utf-8"?>
<!-- Generator: Adobe Illustrator 19.2.1, SVG Export Plug-In . SVG Version: 6.00 Build 0)  -->
<svg version="1.1" id="Layer_1" xmlns="http://www.w3.org/2000/svg" xmlns:xlink="http://www.w3.org/1999/xlink" x="0px" y="0px"
	 viewBox="0 0 101.8 101.8" style="enable-background:new 0 0 101.8 101.8;" xml:space="preserve">
<style type="text/css">
	.st0{fill:#405260;stroke:#405260;stroke-miterlimit:10;}
	.st1{fill:#64727D;stroke:#64727D;stroke-miterlimit:10;}
	.st2{fill:#2D3E4F;stroke:#2D3E4F;stroke-miterlimit:10;}
	.st3{fill:#65737E;stroke:#65737E;stroke-miterlimit:10;}
	.st4{fill:#2C3D4D;stroke:#2C3D4D;stroke-miterlimit:10;}
	.st5{fill:#7A868F;stroke:#7A868F;stroke-miterlimit:10;}
	.st6{fill:#425261;stroke:#425261;stroke-miterlimit:10;}
	.st7{fill:#1F3546;stroke:#1F3546;stroke-miterlimit:10;}
	.st8{fill:#0E9AD6;}
	.st9{fill:none;stroke:#ED1C24;stroke-miterlimit:10;}
	.st10{fill:#50B6E7;}
	.st11{fill:#FFFFFF;}
	.st12{fill:#86CDEB;}
</style>
<rect x="9.1" y="8.4" class="st0" width="83.6" height="84.2"/>
<rect x="9.1" y="1" class="st1" width="83.6" height="7.4"/>
<rect x="9.1" y="92.7" class="st2" width="83.6" height="8.2"/>
<rect x="1" y="8.4" class="st3" width="8.1" height="84.3"/>
<rect x="92.7" y="8.8" class="st4" width="8.1" height="83"/>
<path class="st5" d="M1,8.4C1,8.4,1.3,1,9.1,1v7.4H1z"/>
<path class="st0" d="M9.1,92.7H1c0,0-0.4,7.4,8.1,8.2V92.7z"/>
<path class="st6" d="M92.7,8.4V1c0,0,7-0.5,8.1,7.4H92.7z"/>
<path class="st7" d="M92.7,92.7v8.2c0,0,7,0.4,8.1-8.2H92.7z"/>
<g>
	<polygon class="st8" points="22.3,39.4 50.8,73.2 79.4,39.4 68.4,27.8 33.4,27.8 	"/>
	<path class="st9" d="M39.8,39.4"/>
	<polygon class="st8" points="62,39.4 50.8,73.2 39.8,39.4 	"/>
	<path class="st9" d="M30.1,39.4"/>
	<polygon class="st10" points="50.8,39.4 62,39.4 53.8,64.5 50.8,40.1 50.8,39.4 	"/>
	<polygon class="st8" points="58.8,63.7 71.4,40.1 71.9,39.4 79.4,39.4 	"/>
	<path class="st9" d="M30.1,31.2"/>
	<polygon class="st10" points="50.8,39.4 48,64.5 39.8,39.4 	"/>
	<path class="st9" d="M30.1,31.2"/>
	<path class="st9" d="M30,31.3"/>
	<path class="st9" d="M30,31.3"/>
	<polygon class="st8" points="41.9,32.6 30.3,39.9 30,31.3 30.3,31.1 30.7,30.6 37.4,27.8 37.7,27.8 41.8,32.5 	"/>
	<polygon class="st10" points="41.9,32.6 40.2,39.4 30.9,39.4 	"/>
	<polygon class="st11" points="41.9,32.6 50.9,27.8 59,32.7 51.4,39.4 50.5,39.4 	"/>
	<polygon class="st8" points="41.9,32.6 50.5,39.4 40.2,39.4 	"/>
	<polygon class="st12" points="37.7,27.8 41.8,32.5 50.9,27.8 	"/>
	<polygon class="st10" points="37.4,27.8 30.7,30.6 33.4,27.8 	"/>
	<path class="st9" d="M70.8,30.2"/>
	<polygon class="st10" points="70.8,30.2 79.4,39.4 71.5,39.4 	"/>
	<polygon class="st10" points="61.9,27.8 68.4,27.8 70,29.5 	"/>
	<polygon class="st10" points="42.3,63.2 50.8,73.2 48,64.5 30.1,39.4 	"/>
	<polygon class="st12" points="22.3,39.4 30.3,31.1 30.1,39.4 	"/>
	<polygon class="st8" points="51.4,39.4 59,32.7 62,39.4 	"/>
	<polygon class="st8" points="50.9,27.8 59,32.7 61.3,27.8 	"/>
	<polygon class="st10" points="59,32.7 62,39.4 70.8,39.4 	"/>
	<polygon class="st12" points="30.9,39.4 40.2,39.4 48,64.5 30.3,39.9 	"/>
	<polygon class="st10" points="41.8,32.5 50.5,39.4 51.4,39.4 59,32.7 50.9,27.8 	"/>
	<path class="st12" d="M41.8,32.5"/>
	<polygon class="st8" points="41.9,32.6 50.8,39.4 40.2,39.4 	"/>
	<polygon class="st8" points="50.8,39.4 59,32.7 62,39.4 	"/>
	<polygon class="st8" points="50.8,39.4 50.8,39.4 53.8,64.5 48,64.5 	"/>
	<polygon class="st8" points="30.1,39.4 42.3,63.2 27.5,41.8 	"/>
	<polygon class="st10" points="30.1,39.4 42.3,63.2 45,60.3 	"/>
	<polygon class="st12" points="30.1,39.4 40.2,39.4 43.2,49.3 37,49 	"/>
	<path class="st8" d="M30.2,32.7"/>
	<polygon class="st10" points="41.9,32.6 30.1,39.4 37.5,39.4 	"/>
	<polygon class="st12" points="30.1,39.4 40.2,39.4 41.2,42.8 31.1,40.8 	"/>
	<polygon class="st8" points="41.8,32.5 40.2,39.4 44.4,39.4 45,34.9 	"/>
	<polygon class="st10" points="59,32.7 71.9,39.4 63.2,39.4 	"/>
	<polygon class="st10" points="70.9,32.3 71.9,39.4 77.5,39.4 	"/>
	<polygon class="st12" points="59,32.7 61.3,27.8 61.9,27.8 70,29.5 70.8,30.2 71.5,39.4 	"/>
	<polygon class="st12" points="53.8,64.5 71.5,39.4 58.8,63.7 51.7,72.3 	"/>
	<polygon class="st12" points="71.5,39.4 53.8,64.5 57,63.2 	"/>
</g>
</svg>
