<?xml version="1.0" encoding="utf-8"?>
<!-- Generator: Adobe Illustrator 19.2.1, SVG Export Plug-In . SVG Version: 6.00 Build 0)  -->
<svg version="1.1" id="Layer_1" xmlns="http://www.w3.org/2000/svg" xmlns:xlink="http://www.w3.org/1999/xlink" x="0px" y="0px"
	 viewBox="0 0 757.3 713.7" style="enable-background:new 0 0 757.3 713.7;" xml:space="preserve">
<style type="text/css">
	.st0{fill:#415360;}
	.st1{fill:#65737E;}
	.st2{fill:#2E3F50;}
	.st3{fill:#2C3E4D;}
	.st4{fill:#203546;}
	.st5{fill:#435362;}
	.st6{fill:#66747E;}
	.st7{fill:#7B868F;}
</style>
<rect x="10.4" y="10.6" class="st0" width="735.8" height="691.2"/>
<rect x="18.3" y="2.7" class="st1" width="720" height="15.8"/>
<rect x="18.3" y="693.9" class="st2" width="720" height="15.8"/>
<rect x="738.3" y="18.5" class="st3" width="15.8" height="675.4"/>
<path class="st4" d="M738.3,694.6v15.1c0,0,13.8,0.7,15.8-15.8h-15.8V694.6z"/>
<path class="st5" d="M738.3,18.5h15.8c0,0,0.7-13.8-15.8-15.8V18.5z"/>
<rect x="2.5" y="18.5" class="st6" width="15.8" height="675.4"/>
<path class="st0" d="M18.3,694.6v15.1c0,0-13.8,0.7-15.8-15.8h15.8V694.6z"/>
<path class="st7" d="M17.6,18.5H2.5c0,0-0.7-13.8,15.8-15.8v15.8H17.6z"/>
</svg>
