<?xml version="1.0" encoding="utf-8"?>
<!-- Generator: Adobe Illustrator 19.2.1, SVG Export Plug-In . SVG Version: 6.00 Build 0)  -->
<svg version="1.1" id="Layer_1" xmlns="http://www.w3.org/2000/svg" xmlns:xlink="http://www.w3.org/1999/xlink" x="0px" y="0px"
	 viewBox="0 0 1145 205" style="enable-background:new 0 0 1145 205;" xml:space="preserve">
<style type="text/css">
	.st0{fill:#415360;}
	.st1{fill:#65737E;}
	.st2{fill:#2E3F50;}
	.st3{fill:#2C3E4D;}
	.st4{fill:#203546;}
	.st5{fill:#435362;}
	.st6{fill:#66747E;}
	.st7{fill:#7B868F;}
</style>
<g>
	<rect x="10.5" y="10.5" class="st0" width="1124.1" height="184.1"/>
	<rect x="18.4" y="2.5" class="st1" width="1108.2" height="15.9"/>
	<rect x="18.4" y="186.6" class="st2" width="1108.2" height="15.9"/>
	<rect x="1126.6" y="18.4" class="st3" width="15.9" height="168.2"/>
	<path class="st4" d="M1126.6,187.2v15.3c0,0,13.9,0.7,15.9-15.9h-15.9V187.2z"/>
	<path class="st5" d="M1126.6,18.4h15.9c0,0,0.7-13.9-15.9-15.9V18.4z"/>
	<rect x="2.5" y="18.4" class="st6" width="15.9" height="168.2"/>
	<path class="st0" d="M18.4,187.2v15.3c0,0-13.9,0.7-15.9-15.9h15.9V187.2z"/>
	<path class="st7" d="M17.8,18.4H2.5c0,0-0.7-13.9,15.9-15.9v15.9H17.8z"/>
</g>
</svg>
