<?xml version="1.0" encoding="utf-8"?>
<!-- Generator: Adobe Illustrator 19.2.1, SVG Export Plug-In . SVG Version: 6.00 Build 0)  -->
<svg version="1.1" id="Layer_1" xmlns="http://www.w3.org/2000/svg" xmlns:xlink="http://www.w3.org/1999/xlink" x="0px" y="0px"
	 viewBox="0 0 358.5 439.6" style="enable-background:new 0 0 358.5 439.6;" xml:space="preserve">
<style type="text/css">
	.st0{fill:#415360;}
	.st1{fill:#65737E;}
	.st2{fill:#2E3F50;}
	.st3{fill:#2C3E4D;}
	.st4{fill:#203546;}
	.st5{fill:#435362;}
	.st6{fill:#66747E;}
	.st7{fill:#7B868F;}
</style>
<g>
	<rect x="9.7" y="9.7" class="st0" width="339.2" height="420.2"/>
	<rect x="17.6" y="1.8" class="st1" width="323.4" height="15.8"/>
	<rect x="17.6" y="422" class="st2" width="323.4" height="15.8"/>
	<rect x="340.9" y="17.6" class="st3" width="15.8" height="404.4"/>
	<path class="st4" d="M340.9,422.7v15.1c0,0,13.8,0.7,15.8-15.8h-15.8V422.7z"/>
	<path class="st5" d="M340.9,17.6h15.8c0,0,0.7-13.8-15.8-15.8V17.6z"/>
	<rect x="1.8" y="17.6" class="st6" width="15.8" height="404.4"/>
	<path class="st0" d="M17.6,422.7v15.1c0,0-13.8,0.7-15.8-15.8h15.8V422.7z"/>
	<path class="st7" d="M16.9,17.6H1.8c0,0-0.7-13.8,15.8-15.8v15.8H16.9z"/>
</g>
</svg>
