<?xml version="1.0" encoding="utf-8"?>
<!-- Generator: Adobe Illustrator 19.2.1, SVG Export Plug-In . SVG Version: 6.00 Build 0)  -->
<svg version="1.1" id="Layer_1" xmlns="http://www.w3.org/2000/svg" xmlns:xlink="http://www.w3.org/1999/xlink" x="0px" y="0px"
	 viewBox="0 0 1145 249" style="enable-background:new 0 0 1145 249;" xml:space="preserve">
<style type="text/css">
	.st0{fill:#415360;}
	.st1{fill:#65737E;}
	.st2{fill:#2E3F50;}
	.st3{fill:#2C3E4D;}
	.st4{fill:#203546;}
	.st5{fill:#435362;}
	.st6{fill:#66747E;}
	.st7{fill:#7B868F;}
</style>
<g>
	<rect x="10.4" y="20.2" class="st0" width="1116.3" height="208.5"/>
	<rect x="18.3" y="4.4" class="st1" width="1108.4" height="15.8"/>
	<rect x="18.3" y="228.8" class="st2" width="1108.4" height="15.8"/>
	<rect x="1126.7" y="20.2" class="st3" width="15.8" height="208.5"/>
	<path class="st4" d="M1126.7,229.4v15.1c0,0,13.8,0.7,15.8-15.8h-15.8V229.4z"/>
	<path class="st5" d="M1126.7,20.2h15.8c0,0,0.7-13.8-15.8-15.8V20.2z"/>
	<rect x="2.5" y="20.2" class="st6" width="15.8" height="208.5"/>
	<path class="st0" d="M18.3,229.4v15.1c0,0-13.8,0.7-15.8-15.8h15.8V229.4z"/>
	<path class="st7" d="M17.7,20.2H2.5c0,0-0.7-13.8,15.8-15.8v15.8H17.7z"/>
</g>
</svg>
