<?xml version="1.0" encoding="utf-8"?>
<!-- Generator: Adobe Illustrator 19.2.1, SVG Export Plug-In . SVG Version: 6.00 Build 0)  -->
<svg version="1.1" id="Layer_1" xmlns="http://www.w3.org/2000/svg" xmlns:xlink="http://www.w3.org/1999/xlink" x="0px" y="0px"
	 viewBox="0 0 101.8 101.8" style="enable-background:new 0 0 101.8 101.8;" xml:space="preserve">
<style type="text/css">
	.st0{fill:#405260;stroke:#405260;stroke-miterlimit:10;}
	.st1{fill:#64727D;stroke:#64727D;stroke-miterlimit:10;}
	.st2{fill:#2D3E4F;stroke:#2D3E4F;stroke-miterlimit:10;}
	.st3{fill:#65737E;stroke:#65737E;stroke-miterlimit:10;}
	.st4{fill:#2C3D4D;stroke:#2C3D4D;stroke-miterlimit:10;}
	.st5{fill:#7A868F;stroke:#7A868F;stroke-miterlimit:10;}
	.st6{fill:#425261;stroke:#425261;stroke-miterlimit:10;}
	.st7{fill:#1F3546;stroke:#1F3546;stroke-miterlimit:10;}
	.st8{fill:#EB7374;}
	.st9{fill:#A02928;}
	.st10{fill:#BF3636;}
	.st11{fill:#E66868;}
	.st12{fill:#F9B7B9;}
	.st13{fill:#C54140;}
	.st14{fill:#D94E4E;}
</style>
<rect x="9.1" y="8.4" class="st0" width="83.6" height="84.2"/>
<rect x="9.1" y="1" class="st1" width="83.6" height="7.4"/>
<rect x="9.1" y="92.7" class="st2" width="83.6" height="8.2"/>
<rect x="1" y="8.4" class="st3" width="8.1" height="84.3"/>
<rect x="92.7" y="8.8" class="st4" width="8.1" height="83"/>
<path class="st5" d="M1,8.4C1,8.4,1.3,1,9.1,1v7.4H1z"/>
<path class="st0" d="M9.1,92.7H1c0,0-0.4,7.4,8.1,8.2V92.7z"/>
<path class="st6" d="M92.7,8.4V1c0,0,7-0.5,8.1,7.4H92.7z"/>
<path class="st7" d="M92.7,92.7v8.2c0,0,7,0.4,8.1-8.2H92.7z"/>
<g>
	<polygon class="st8" points="35.1,35.4 37.2,32.2 42,44.9 42.7,57.6 36.8,68.7 34.7,65.7 	"/>
	<polygon class="st9" points="42.3,50.9 42.3,35.4 50.8,33.2 60.5,37.5 60,67.1 51.2,67.1 42.3,64 	"/>
	<polygon class="st8" points="64.8,34.9 59.7,50.6 64.3,67.1 67.1,67.1 66.8,34.6 65.5,33.5 	"/>
	<polygon class="st9" points="39.9,27.6 41,30.6 61.4,30.6 62.7,27.6 	"/>
	<polygon class="st10" points="62.7,27.6 68.2,33.5 65.5,34.6 61.4,30.6 	"/>
	<polygon class="st9" points="65.5,34.6 65.5,66.1 68.2,67.8 68.2,33.5 	"/>
	<polygon class="st10" points="41,30.6 36.8,34.6 33.5,33.2 39.9,27.6 	"/>
	<polygon class="st9" points="36.8,34.6 36.8,66.4 33.5,67.8 33.5,33.2 	"/>
	<polygon class="st10" points="36.8,66.4 41,70.2 39.9,73.3 33.5,67.8 	"/>
	<polygon class="st9" points="41,70.2 61.4,69.8 62.8,73.3 39.9,73.3 	"/>
	<polygon class="st10" points="61.4,69.8 65.5,66.1 68.2,67.8 62.8,73.3 	"/>
	<path class="st11" d="M41,30.6c0,0,5.4,3.8,10.8,4.8c0,0,6.9-2.7,9.6-4.8C61.4,30.6,41,30.6,41,30.6z"/>
	<path class="st11" d="M41,70.2c0,0,6.3-3.9,10.4-4.5c0,0,4,0.8,10.1,4.2L41,70.2z"/>
	<path class="st12" d="M61.4,30.6c0,0-2.1,3.8-2.8,6.9c0,0,3.4-0.9,6.8-2.9L61.4,30.6z"/>
	<path class="st12" d="M41,30.6c0,0,2.3,5.1,2.4,6.9c0,0-3.3-0.6-6.6-2.9L41,30.6z"/>
	<path class="st13" d="M43.4,37.5c0,0,5.2-0.2,8.4-2.1c0,0-6.2-1.3-10.8-4.8C41,30.6,42.6,33.8,43.4,37.5z"/>
	<path class="st14" d="M51.8,35.4c0,0,3,1.8,6.8,2.1c0,0,1.4-5.1,2.8-6.9C61.4,30.6,56.2,33.8,51.8,35.4z"/>
	<path class="st13" d="M58.6,37.5c0,0-0.6,4.7,1.1,13.1c0,0,3.6-12,5.7-16C65.5,34.6,62.2,36.5,58.6,37.5z"/>
	<path class="st14" d="M59.7,50.6c0,0,3.6,12.7,5.7,15.4c0,0-4.9-1.9-6.5-2C59,64.1,58,58.1,59.7,50.6z"/>
	<path class="st12" d="M59,64.1c0,0,0.3,1.9,2.5,5.8l4-3.8C65.5,66.1,61.5,64.4,59,64.1z"/>
	<path class="st13" d="M59,64.1c0,0-5.7,0.3-7.6,1.6c0,0,3.8,0.7,10.1,4.2C61.4,69.8,59.5,66.7,59,64.1z"/>
	<path class="st14" d="M36.8,34.6c0,0,3.9,7.7,5.6,16.3c0,0,1.5-5.9,1.1-13.4C43.4,37.5,39.7,36.8,36.8,34.6z"/>
	<path class="st13" d="M42.3,50.9c0,0,2.1,4.8,1.5,13.2c0,0-3.2,0.2-7,2.3C36.8,66.4,41.9,56.8,42.3,50.9z"/>
	<path class="st12" d="M36.8,66.4c0,0,2.8-1.8,7-2.3c0,0-0.3,2.1-2.8,6.1L36.8,66.4z"/>
	<path class="st14" d="M43.8,64.1c0,0,4.4-0.3,7.6,1.6c0,0-4.4,0.6-10.4,4.5C41,70.2,43.2,66.8,43.8,64.1z"/>
</g>
</svg>
