<?xml version="1.0" encoding="utf-8"?>
<!-- Generator: Adobe Illustrator 19.2.1, SVG Export Plug-In . SVG Version: 6.00 Build 0)  -->
<svg version="1.1" id="Layer_1" xmlns="http://www.w3.org/2000/svg" xmlns:xlink="http://www.w3.org/1999/xlink" x="0px" y="0px"
	 viewBox="0 0 264 126" style="enable-background:new 0 0 264 126;" xml:space="preserve">
<style type="text/css">
	.st0{fill:#425460;}
	.st1{fill:#66747E;}
	.st2{fill:#2F4051;}
	.st3{fill:#2D3F4D;}
	.st4{fill:#213546;}
	.st5{fill:#445463;}
	.st6{fill:#7C868F;}
</style>
<g>
	<rect x="8.5" y="8.5" class="st0" width="247.1" height="109.1"/>
	<rect x="16.4" y="0.5" class="st1" width="231.3" height="15.9"/>
	<rect x="16.4" y="109.6" class="st2" width="231.2" height="15.9"/>
	<rect x="247.6" y="16.4" class="st3" width="15.9" height="93.2"/>
	<path class="st4" d="M247.6,110.2v15.3c0,0,13.9,0.7,15.9-15.9h-15.9V110.2z"/>
	<path class="st5" d="M247.6,16.4h15.9c0,0,0.7-13.9-15.9-15.9V16.4z"/>
	<rect x="0.5" y="16.4" class="st1" width="15.9" height="93.2"/>
	<path class="st0" d="M16.4,110.2v15.3c0,0-13.9,0.7-15.9-15.9h15.9V110.2z"/>
	<path class="st6" d="M15.8,16.4H0.5c0,0-0.7-13.9,15.9-15.9v15.9H15.8z"/>
</g>
<rect x="75.7" y="136" style="fill:none;" width="296.3" height="76"/>
<text transform="matrix(1 0 0 1 75.6665 144.5195)"><tspan x="0" y="0" style="font-family:'MyriadPro-Regular'; font-size:12px;">http://codepen.io/wintr/pen/GZQWbw</tspan><tspan x="0" y="28.8" style="font-family:'MyriadPro-Regular'; font-size:12px;">http://codepen.io/Wakkos/pen/xAhdq</tspan></text>
</svg>
